<svg width="355" height="201" viewBox="0 0 355 201" fill="none" xmlns="http://www.w3.org/2000/svg">
<path d="M73.3706 189.459C71.3827 188.012 69.4852 186.384 67.5877 184.665L64.3348 181.5C70.6599 172.999 73.0092 165.764 73.0092 155.092C73.0092 131.307 58.823 116.113 36.7757 116.113C14.3669 116.113 0 131.488 0 155.363C0 179.329 14.2766 194.704 36.6853 194.704C43.3718 194.704 48.4318 193.528 53.7629 190.544C59.9976 196.603 61.2626 197.869 63.2505 200.311L73.3706 189.459ZM34.2456 172.456C36.7757 174.446 38.4021 175.893 41.2032 178.425C39.8478 178.968 38.2214 179.239 36.5046 179.239C32.0771 179.239 28.0109 177.611 25.1195 174.627C20.8727 170.376 18.7041 163.593 18.7041 154.911C18.7041 140.531 25.4809 131.668 36.5046 131.668C47.6186 131.668 54.3954 140.622 54.3954 155.363C54.3954 161.513 53.5822 165.402 51.504 169.291C46.0825 164.136 46.0825 164.136 44.5464 162.327L34.2456 172.456ZM119.611 137.818C120.153 142.521 120.333 146.319 120.333 151.384V169.924C116.809 175.712 111.749 179.239 106.78 179.239C104.159 179.239 102.171 178.335 100.906 176.707C99.8221 175.26 99.4607 173.632 99.4607 169.924V151.384C99.4607 145.958 99.6414 142.159 100.184 137.818H81.3891C81.8409 141.617 82.112 146.139 82.112 151.384V174.084C82.112 181.229 83.6481 185.66 87.2624 189.278C90.696 192.624 95.5753 194.342 101.629 194.342C109.31 194.342 114.46 192.172 120.424 186.565C120.333 187.198 120.333 188.554 120.333 189.006V192.895H138.315C137.772 189.278 137.592 185.57 137.592 179.329V151.384C137.592 145.867 137.772 142.069 138.315 137.818H119.611ZM148.107 117.741V131.307H166.45V117.741H148.107ZM147.836 137.818C148.378 141.888 148.559 145.596 148.559 151.474V179.329C148.559 185.118 148.378 188.554 147.836 192.986H166.721C166.269 189.097 165.998 184.213 165.998 179.329V151.474C165.998 145.144 166.179 141.526 166.721 137.818H147.836ZM229.558 154.549C226.577 142.521 216.908 135.648 202.993 135.648C185.373 135.648 173.988 147.224 173.988 165.312C173.988 174.174 176.88 182.133 182.121 187.288C187.09 192.353 194.5 195.066 203.174 195.066C213.655 195.066 221.878 191.358 226.396 184.665C228.113 182.043 229.197 179.601 230.191 175.712L213.565 173.089C213.204 175.169 212.752 176.074 211.939 177.249C210.132 179.782 206.879 181.229 203.355 181.229C196.126 181.229 191.518 174.898 191.518 165.131C191.518 155.182 195.855 149.394 203.174 149.394C206.427 149.394 208.957 150.48 210.764 152.56C211.939 153.916 212.481 155.182 213.294 157.896L229.558 154.549ZM237.223 117.741C237.675 121.087 237.945 125.247 237.945 131.397V179.329C237.945 185.298 237.765 188.916 237.223 192.986H255.655C255.023 189.368 254.932 187.198 254.932 179.782V176.164L261.709 169.653L268.576 180.867C271.197 185.208 273.185 189.187 274.54 192.986H297.581C295.051 189.911 294.69 189.368 289.178 181.41L274.088 159.343L287.19 146.681C292.069 141.888 293.154 140.893 296.678 137.818H272.643C270.926 140.441 268.938 142.792 264.781 146.953L254.842 156.81V131.397C254.842 125.338 255.023 121.449 255.565 117.741H237.223ZM301.324 176.526C302.228 180.867 303.131 183.037 304.938 185.57C309.276 191.539 317.317 194.614 328.702 194.614C338.371 194.614 345.78 192.353 350.117 188.012C353.099 185.118 354.726 180.777 354.726 175.983C354.726 169.472 351.924 165.04 346.051 162.146C342.889 160.518 340.088 159.704 331.232 157.805C322.287 155.815 320.39 154.911 320.39 152.469C320.39 150.118 323.281 148.58 327.98 148.58C332.859 148.58 335.118 150.208 335.57 153.916L353.009 152.017C351.563 146.953 350.117 144.33 347.135 141.707C342.889 137.818 336.473 135.919 327.889 135.919C312.799 135.919 303.673 142.521 303.673 153.374C303.673 156.449 304.487 159.523 305.932 161.965C307.649 164.678 310.631 166.759 314.968 168.386C317.95 169.381 321.474 170.286 328.341 171.642C333.311 172.637 334.485 172.999 335.75 173.722C337.015 174.446 337.738 175.622 337.738 176.978C337.738 179.782 334.666 181.319 329.245 181.319C323.191 181.319 320.118 179.239 319.215 174.536L301.324 176.526Z" fill="#0F8A69"/>
<path d="M2.07349 54.3535C2.70599 58.5137 3.15779 60.5937 4.06137 62.7643C5.95889 67.9192 9.30212 71.8081 13.82 74.3404C18.6993 77.144 26.2894 78.7719 33.9698 78.7719C44.5417 78.7719 52.4932 76.1491 57.734 71.0846C61.8904 67.0149 64.059 61.2268 64.059 54.4439C64.059 46.1236 60.8061 40.0642 54.3003 35.9945C50.8667 33.824 46.5296 32.2865 39.6624 30.8395C29.0002 28.669 29.0001 28.669 27.193 27.855C24.3015 26.4985 22.9462 24.5992 22.9462 22.067C22.9462 17.9068 27.0123 14.9223 32.5241 14.9223C39.3913 14.9223 42.6442 17.3642 43.7285 23.2427L62.8843 21.1626C61.7097 16.0076 60.6254 13.2944 58.3664 10.31C53.4871 3.5271 44.7224 0 33.2469 0C15.4464 0 4.24209 8.77253 4.24209 22.7C4.24209 30.0256 7.31424 36.0849 13.0068 40.0642C16.35 42.4156 19.2415 43.5009 27.5544 45.3096C36.9516 47.4802 39.2106 48.1132 41.1081 49.0176C43.4574 50.1029 44.9031 52.5447 44.9031 55.3483C44.9031 60.4129 40.7467 63.4878 33.7891 63.4878C29.1809 63.4878 25.3858 61.9503 23.2172 59.2372C21.8619 57.4284 21.2294 55.8005 20.8679 52.5447L2.07349 54.3535ZM72.7942 1.80877V15.3745H91.1369V1.80877H72.7942ZM72.5231 21.8861C73.0653 25.9558 73.246 29.6638 73.246 35.5423V63.3973C73.246 69.1854 73.0653 72.622 72.5231 77.0535H91.408C90.9562 73.1647 90.6851 68.281 90.6851 63.3973V35.5423C90.6851 29.2116 90.8658 25.5941 91.408 21.8861H72.5231ZM119.639 77.0535C119.096 72.622 118.916 69.0949 118.916 63.3973V45.1288C121.446 38.979 125.602 35.4519 130.482 35.4519C132.65 35.4519 134.457 36.2658 135.451 37.7128C136.626 39.2503 136.987 40.9686 136.987 44.767V63.3973C136.987 69.1854 136.807 72.9838 136.264 77.0535H155.059C154.517 72.7125 154.336 68.9141 154.336 63.4878V45.0383C156.595 38.979 160.751 35.3614 165.36 35.3614C170.51 35.3614 172.498 37.9841 172.498 44.767V63.3973C172.498 69.5471 172.317 72.8029 171.775 77.0535H190.57C190.027 72.8029 189.847 69.0949 189.847 63.4878V41.059C189.847 27.4028 183.251 20.3486 170.329 20.3486C162.468 20.3486 156.956 22.7 151.354 28.2168C150.18 25.9558 149.276 24.8706 147.65 23.6949C144.668 21.5243 140.782 20.4391 136.084 20.4391C128.945 20.4391 123.434 22.7905 118.825 27.855C118.825 27.6742 118.825 27.4933 118.825 27.4028C118.825 27.1315 118.825 26.9506 118.825 26.9506C118.916 26.0463 118.916 26.0463 118.916 25.6845V21.8861H101.025C101.567 25.4132 101.748 28.669 101.748 35.5423V63.3973C101.748 69.0949 101.567 72.8934 101.025 77.0535H119.639ZM218.465 93.4229C217.923 89.534 217.743 85.3739 217.743 80.3093V74.0691C217.652 72.8029 217.652 71.6272 217.652 70.8133C220.182 72.9838 221.538 73.9786 223.887 74.9734C227.23 76.4205 231.838 77.3248 236.085 77.3248C243.495 77.3248 250.091 74.7926 254.699 70.1802C259.85 65.0252 262.561 57.5188 262.561 48.2941C262.561 39.1598 260.121 32.0152 255.332 27.222C250.633 22.6096 244.128 20.2582 236.176 20.2582C228.676 20.2582 223.074 22.1574 217.652 26.6793C217.652 26.2271 217.743 25.5036 217.743 24.961V21.8861H199.942C200.484 26.4985 200.665 30.2064 200.665 36.0849V80.2189C200.665 85.0121 200.394 89.534 199.942 93.4229H218.465ZM232.109 63.6686C223.977 63.6686 217.923 57.2475 217.923 48.7463C217.923 40.5164 224.068 33.9144 231.567 33.9144C240.061 33.9144 244.941 39.2503 244.941 48.475C244.941 53.63 243.495 57.7901 240.965 60.232C238.616 62.4929 235.543 63.6686 232.109 63.6686ZM269.827 1.80877C270.369 5.24543 270.55 9.04384 270.55 15.465V63.3973C270.55 69.9089 270.369 72.9838 269.827 77.0535H288.712C288.17 72.2603 287.989 68.8236 287.989 63.3973V15.465C287.989 9.31516 288.17 5.60718 288.712 1.80877H269.827ZM353.18 54.5344C353.09 53.63 353.09 53.0873 353.09 52.7256C352.819 47.5706 352.457 43.7722 351.734 40.8782C348.572 27.4028 338.723 19.7156 324.627 19.7156C307.369 19.7156 295.893 31.563 295.893 49.4698C295.893 58.4232 298.785 66.1105 304.116 71.5368C309.266 76.6918 316.224 79.224 325.079 79.224C334.024 79.224 341.253 76.6013 346.403 71.5368C348.933 69.0045 350.288 66.9244 352.367 62.2216L336.644 57.7901C335.922 60.1415 335.289 61.1364 333.934 62.4025C331.584 64.573 328.422 65.7487 324.808 65.7487C317.669 65.7487 313.423 61.8599 312.519 54.5344H353.18ZM312.79 42.0539C314.326 36.0849 318.211 33.1909 324.627 33.1909C330.862 33.1909 334.747 36.2658 336.012 42.0539H312.79Z" fill="#0F8A69"/>
</svg>
